# xmcd
#
# Track frame offsets: 
#        150
#        10700
#        24909
#        35461
#        48663
#        62284
#        74236
#        85943
#        98653
#        112223
#        125582
#        139626
#        153031
#        168031
#        180861
#        195271
#        208816
#        222261
#        235721
#        246266
#
# Disc length: 3417 seconds
#
# Revision: 1
# Processed by: cddbd v1.5.2PL0 Copyright (c) Steve Scherf et al.
# Submitted via: ExactAudioCopy v1.1
#
DISCID=050d5714
DTITLE=Various Artist - The Complete Motown Singles Volume 7 [CD35
DTITLE=)
DYEAR=2007
DGENRE=R&B
TTITLE0=Paul Petersen - Chained (promo version) (mono)
TTITLE1=Paul Petersen - Don't Let It Happen To Us (mono)
TTITLE2=Paul Petersen - Chained (commercial version) (mono)
TTITLE3=The Spinners - For All We Know (mono)
TTITLE4=The Spinners - I Cross My Heart (mono)
TTITLE5=Stevie Wonder - I Was Made To Love Her (mono)
TTITLE6=Stevie Wonder - Hold Me (mono)
TTITLE7=Smokey Robinson and The Miracles - More Love (mono)
TTITLE8=Smokey Robinson and The Miracles - Swept For You Baby (mono)
TTITLE9=The Elgins - It's Been A Long, Long Time (A Long Time) (mono)
TTITLE10=The Elgins - I Understand My Man (mono)
TTITLE11=Gladys Knight and The Pips - Everybody Needs Love (mono)
TTITLE12=Marvin Gaye - Your Unchanging Love (mono)
TTITLE13=Marvin Gaye - I'll Take Care Of You (mono)
TTITLE14=The Temptations - You're My Everything (mono)
TTITLE15=The Temptations - I've Been Good To You (mono)
TTITLE16=Jr. Walker and The All Stars - Ain't That The Truth (mono)
TTITLE17=Jimmy Ruffin - Don't You Miss Me A Little Bit Baby (mono)
TTITLE18=The Isley Brothers - That's The Way Love Is (mono)
TTITLE19=The Isley Brothers - One Too Many Heartaches (mono)
EXTD=
EXTT0=
EXTT1=
EXTT2=
EXTT3=
EXTT4=
EXTT5=
EXTT6=
EXTT7=
EXTT8=
EXTT9=
EXTT10=
EXTT11=
EXTT12=
EXTT13=
EXTT14=
EXTT15=
EXTT16=
EXTT17=
EXTT18=
EXTT19=
PLAYORDER=
